<mxfile host="app.diagrams.net" agent="Mozilla/5.0 (Windows NT 10.0; Win64; x64) AppleWebKit/537.36 (KHTML, like Gecko) Chrome/130.0.0.0 Safari/537.36" version="24.8.6">
  <diagram name="페이지-1" id="oiV3U7e5aB4RnHk1_cCy">
    <mxGraphModel dx="1136" dy="614" grid="1" gridSize="10" guides="1" tooltips="1" connect="1" arrows="1" fold="1" page="1" pageScale="1" pageWidth="827" pageHeight="1169" math="0" shadow="0">
      <root>
        <mxCell id="0" />
        <mxCell id="1" parent="0" />
        <mxCell id="x68xbchdrgiEY4ZM-lXV-15" value="" style="rounded=0;whiteSpace=wrap;html=1;fillColor=#e5f0ff;strokeColor=#6c8ebf;dashed=1;dashPattern=12 12;" vertex="1" parent="1">
          <mxGeometry x="280" y="340" width="320" height="120" as="geometry" />
        </mxCell>
        <mxCell id="x68xbchdrgiEY4ZM-lXV-17" style="edgeStyle=orthogonalEdgeStyle;rounded=0;orthogonalLoop=1;jettySize=auto;html=1;exitX=1;exitY=0.5;exitDx=0;exitDy=0;entryX=0;entryY=0.5;entryDx=0;entryDy=0;" edge="1" parent="1" source="x68xbchdrgiEY4ZM-lXV-3" target="x68xbchdrgiEY4ZM-lXV-5">
          <mxGeometry relative="1" as="geometry" />
        </mxCell>
        <mxCell id="x68xbchdrgiEY4ZM-lXV-3" value="" style="rounded=1;whiteSpace=wrap;html=1;" vertex="1" parent="1">
          <mxGeometry x="40" y="360" width="80" height="80" as="geometry" />
        </mxCell>
        <mxCell id="x68xbchdrgiEY4ZM-lXV-4" value="문제 파악" style="text;strokeColor=none;align=center;fillColor=none;html=1;verticalAlign=middle;whiteSpace=wrap;rounded=0;" vertex="1" parent="1">
          <mxGeometry x="50" y="385" width="60" height="30" as="geometry" />
        </mxCell>
        <mxCell id="x68xbchdrgiEY4ZM-lXV-5" value="" style="rounded=1;whiteSpace=wrap;html=1;" vertex="1" parent="1">
          <mxGeometry x="160" y="360" width="80" height="80" as="geometry" />
        </mxCell>
        <mxCell id="x68xbchdrgiEY4ZM-lXV-18" style="edgeStyle=orthogonalEdgeStyle;rounded=0;orthogonalLoop=1;jettySize=auto;html=1;exitX=1;exitY=0.5;exitDx=0;exitDy=0;entryX=0;entryY=0.5;entryDx=0;entryDy=0;" edge="1" parent="1" source="x68xbchdrgiEY4ZM-lXV-6" target="x68xbchdrgiEY4ZM-lXV-7">
          <mxGeometry relative="1" as="geometry" />
        </mxCell>
        <mxCell id="x68xbchdrgiEY4ZM-lXV-6" value="- 데이터 수집&lt;div&gt;- 데이터 이해&lt;/div&gt;" style="text;strokeColor=none;align=center;fillColor=none;html=1;verticalAlign=middle;whiteSpace=wrap;rounded=0;" vertex="1" parent="1">
          <mxGeometry x="163" y="385" width="75" height="30" as="geometry" />
        </mxCell>
        <mxCell id="x68xbchdrgiEY4ZM-lXV-20" style="edgeStyle=orthogonalEdgeStyle;rounded=0;orthogonalLoop=1;jettySize=auto;html=1;exitX=1;exitY=0.5;exitDx=0;exitDy=0;entryX=0;entryY=0.5;entryDx=0;entryDy=0;" edge="1" parent="1" source="x68xbchdrgiEY4ZM-lXV-7" target="x68xbchdrgiEY4ZM-lXV-9">
          <mxGeometry relative="1" as="geometry" />
        </mxCell>
        <mxCell id="x68xbchdrgiEY4ZM-lXV-7" value="" style="rounded=1;whiteSpace=wrap;html=1;" vertex="1" parent="1">
          <mxGeometry x="300" y="360" width="160" height="80" as="geometry" />
        </mxCell>
        <mxCell id="x68xbchdrgiEY4ZM-lXV-8" value="- 데이터 준비 (전처리)&lt;div&gt;- 특징 추출&lt;/div&gt;" style="text;strokeColor=none;align=left;fillColor=none;html=1;verticalAlign=middle;whiteSpace=wrap;rounded=0;" vertex="1" parent="1">
          <mxGeometry x="310" y="385" width="130" height="30" as="geometry" />
        </mxCell>
        <mxCell id="x68xbchdrgiEY4ZM-lXV-21" style="edgeStyle=orthogonalEdgeStyle;rounded=0;orthogonalLoop=1;jettySize=auto;html=1;exitX=1;exitY=0.5;exitDx=0;exitDy=0;entryX=0;entryY=0.5;entryDx=0;entryDy=0;" edge="1" parent="1" source="x68xbchdrgiEY4ZM-lXV-9" target="x68xbchdrgiEY4ZM-lXV-11">
          <mxGeometry relative="1" as="geometry" />
        </mxCell>
        <mxCell id="x68xbchdrgiEY4ZM-lXV-9" value="" style="rounded=1;whiteSpace=wrap;html=1;" vertex="1" parent="1">
          <mxGeometry x="500" y="360" width="80" height="80" as="geometry" />
        </mxCell>
        <mxCell id="x68xbchdrgiEY4ZM-lXV-10" value="- 모델 수립&lt;div&gt;- 분석&lt;/div&gt;" style="text;strokeColor=none;align=left;fillColor=none;html=1;verticalAlign=middle;whiteSpace=wrap;rounded=0;" vertex="1" parent="1">
          <mxGeometry x="505" y="385" width="70" height="30" as="geometry" />
        </mxCell>
        <mxCell id="x68xbchdrgiEY4ZM-lXV-22" style="edgeStyle=orthogonalEdgeStyle;rounded=0;orthogonalLoop=1;jettySize=auto;html=1;exitX=0.5;exitY=1;exitDx=0;exitDy=0;entryX=0.5;entryY=0;entryDx=0;entryDy=0;" edge="1" parent="1" source="x68xbchdrgiEY4ZM-lXV-11" target="x68xbchdrgiEY4ZM-lXV-13">
          <mxGeometry relative="1" as="geometry" />
        </mxCell>
        <mxCell id="x68xbchdrgiEY4ZM-lXV-23" style="edgeStyle=orthogonalEdgeStyle;rounded=0;orthogonalLoop=1;jettySize=auto;html=1;exitX=0.5;exitY=0;exitDx=0;exitDy=0;entryX=0.5;entryY=0;entryDx=0;entryDy=0;" edge="1" parent="1" source="x68xbchdrgiEY4ZM-lXV-11" target="x68xbchdrgiEY4ZM-lXV-3">
          <mxGeometry relative="1" as="geometry">
            <Array as="points">
              <mxPoint x="680" y="280" />
              <mxPoint x="80" y="280" />
            </Array>
          </mxGeometry>
        </mxCell>
        <mxCell id="x68xbchdrgiEY4ZM-lXV-11" value="" style="rounded=1;whiteSpace=wrap;html=1;" vertex="1" parent="1">
          <mxGeometry x="640" y="360" width="80" height="80" as="geometry" />
        </mxCell>
        <mxCell id="x68xbchdrgiEY4ZM-lXV-12" value="모델 평가" style="text;strokeColor=none;align=center;fillColor=none;html=1;verticalAlign=middle;whiteSpace=wrap;rounded=0;" vertex="1" parent="1">
          <mxGeometry x="650" y="385" width="60" height="30" as="geometry" />
        </mxCell>
        <mxCell id="x68xbchdrgiEY4ZM-lXV-13" value="" style="rounded=1;whiteSpace=wrap;html=1;" vertex="1" parent="1">
          <mxGeometry x="640" y="480" width="80" height="80" as="geometry" />
        </mxCell>
        <mxCell id="x68xbchdrgiEY4ZM-lXV-14" value="배포" style="text;strokeColor=none;align=center;fillColor=none;html=1;verticalAlign=middle;whiteSpace=wrap;rounded=0;" vertex="1" parent="1">
          <mxGeometry x="650" y="505" width="60" height="30" as="geometry" />
        </mxCell>
        <mxCell id="x68xbchdrgiEY4ZM-lXV-16" value="&lt;b&gt;&lt;font color=&quot;#060ffe&quot;&gt;머신러닝 핵심 부분&lt;/font&gt;&lt;/b&gt;" style="text;strokeColor=none;align=center;fillColor=none;html=1;verticalAlign=middle;whiteSpace=wrap;rounded=0;" vertex="1" parent="1">
          <mxGeometry x="385" y="310" width="120" height="30" as="geometry" />
        </mxCell>
        <mxCell id="x68xbchdrgiEY4ZM-lXV-24" value="결과 평가에 따른 재시도" style="text;strokeColor=none;align=center;fillColor=none;html=1;verticalAlign=middle;whiteSpace=wrap;rounded=0;" vertex="1" parent="1">
          <mxGeometry x="540" y="250" width="140" height="30" as="geometry" />
        </mxCell>
      </root>
    </mxGraphModel>
  </diagram>
</mxfile>
